<mxfile host="app.diagrams.net" modified="2023-11-03T21:32:17.309Z" agent="Mozilla/5.0 (Macintosh; Intel Mac OS X 10_15_7) AppleWebKit/537.36 (KHTML, like Gecko) Chrome/117.0.0.0 Safari/537.36" etag="Q0cfdotacl0bqKlFWLgS" version="22.0.8" type="google">
  <diagram name="Page-1" id="_5Urlw5P0pOzpNqOir3O">
    <mxGraphModel grid="1" page="1" gridSize="10" guides="1" tooltips="1" connect="1" arrows="1" fold="1" pageScale="1" pageWidth="1169" pageHeight="827" background="none" math="0" shadow="1">
      <root>
        <mxCell id="0" />
        <mxCell id="1" parent="0" />
        <mxCell id="Evu7qq2znyqsHLKRFk3_-1" value="&lt;b&gt;CPSC 304 Project Group 12&lt;/b&gt;&lt;br&gt;Tina Nguyen (15963184, l5e2b)&lt;br&gt;Jezarah Ebel (54217161, x1d1q)&lt;br&gt;Arman Randhawa (19407006, y7z8e)" style="rounded=0;whiteSpace=wrap;html=1;" vertex="1" parent="1">
          <mxGeometry x="882.36" y="26.88" width="210" height="60" as="geometry" />
        </mxCell>
        <mxCell id="dsAYrAbXlvFwTesoepJ8-63" value="&lt;b&gt;Furry Friends Grooming Salon&lt;/b&gt;" style="text;html=1;align=center;verticalAlign=middle;resizable=0;points=[];autosize=1;strokeColor=none;fillColor=none;" vertex="1" parent="1">
          <mxGeometry x="191.6551851851852" y="86.88" width="200" height="30" as="geometry" />
        </mxCell>
        <mxCell id="FvDs03gsVKllFDn5LNJ5-3" value="" style="group" connectable="0" vertex="1" parent="1">
          <mxGeometry x="270" y="150" width="690" height="630" as="geometry" />
        </mxCell>
        <mxCell id="dsAYrAbXlvFwTesoepJ8-2" value="Service Provider" style="rounded=0;whiteSpace=wrap;html=1;container=0;" vertex="1" parent="1">
          <mxGeometry x="725.5714814814816" y="221.49999999999994" width="83.9506172839506" height="29.999999999999996" as="geometry" />
        </mxCell>
        <mxCell id="uRuj4pBsoYsER1AoV_i5-3" style="edgeStyle=orthogonalEdgeStyle;rounded=0;orthogonalLoop=1;jettySize=auto;html=1;exitX=1;exitY=0.5;exitDx=0;exitDy=0;endArrow=none;endFill=0;" edge="1" parent="1" source="dsAYrAbXlvFwTesoepJ8-3" target="uRuj4pBsoYsER1AoV_i5-2">
          <mxGeometry relative="1" as="geometry" />
        </mxCell>
        <mxCell id="dsAYrAbXlvFwTesoepJ8-3" value="Branch" style="rounded=0;whiteSpace=wrap;html=1;container=0;" vertex="1" parent="1">
          <mxGeometry x="862.3039506172838" y="126.5" width="58.76543209876544" height="29.999999999999996" as="geometry" />
        </mxCell>
        <mxCell id="ehKbYfIGueKPBCr57h6E-1" value="Rooms" style="rounded=0;whiteSpace=wrap;html=1;container=0;" vertex="1" parent="1">
          <mxGeometry x="859.7856790123456" y="347.5" width="50.37037037037037" height="39.99999999999999" as="geometry" />
        </mxCell>
        <mxCell id="1ygeVyvk1VY-v8zEGY2U-4" value="Pet Owner" style="rounded=0;whiteSpace=wrap;html=1;container=0;" vertex="1" parent="1">
          <mxGeometry x="250.77" y="615" width="60" height="30" as="geometry" />
        </mxCell>
        <mxCell id="dsAYrAbXlvFwTesoepJ8-5" value="Owns" style="rhombus;whiteSpace=wrap;html=1;container=0;" vertex="1" parent="1">
          <mxGeometry x="352.44506172839505" y="605" width="50.37037037037037" height="50" as="geometry" />
        </mxCell>
        <mxCell id="LyDRULH2HwLu1EPaibUr-1" style="edgeStyle=orthogonalEdgeStyle;rounded=0;orthogonalLoop=1;jettySize=auto;html=1;exitX=0.5;exitY=1;exitDx=0;exitDy=0;entryX=1;entryY=0;entryDx=0;entryDy=0;endArrow=none;endFill=0;" edge="1" parent="1" source="1ygeVyvk1VY-v8zEGY2U-5" target="1ygeVyvk1VY-v8zEGY2U-22">
          <mxGeometry relative="1" as="geometry" />
        </mxCell>
        <mxCell id="LyDRULH2HwLu1EPaibUr-2" style="edgeStyle=orthogonalEdgeStyle;rounded=0;orthogonalLoop=1;jettySize=auto;html=1;exitX=0.75;exitY=1;exitDx=0;exitDy=0;entryX=0.5;entryY=0;entryDx=0;entryDy=0;endArrow=none;endFill=0;" edge="1" parent="1" source="1ygeVyvk1VY-v8zEGY2U-5" target="1ygeVyvk1VY-v8zEGY2U-23">
          <mxGeometry relative="1" as="geometry" />
        </mxCell>
        <mxCell id="1ygeVyvk1VY-v8zEGY2U-5" value="Inventory" style="rounded=0;whiteSpace=wrap;html=1;container=0;" vertex="1" parent="1">
          <mxGeometry x="922.1999999999999" y="457.5" width="55.56" height="30" as="geometry" />
        </mxCell>
        <mxCell id="wlC_-Lx5bj7dAYGHCpfk-9" style="edgeStyle=orthogonalEdgeStyle;rounded=0;orthogonalLoop=1;jettySize=auto;html=1;exitX=0.5;exitY=0;exitDx=0;exitDy=0;entryX=0.5;entryY=0;entryDx=0;entryDy=0;endArrow=none;endFill=0;" edge="1" parent="1" source="ehKbYfIGueKPBCr57h6E-3" target="FvDs03gsVKllFDn5LNJ5-11">
          <mxGeometry relative="1" as="geometry" />
        </mxCell>
        <mxCell id="FvDs03gsVKllFDn5LNJ5-53" style="edgeStyle=orthogonalEdgeStyle;rounded=0;orthogonalLoop=1;jettySize=auto;html=1;exitX=1;exitY=0.25;exitDx=0;exitDy=0;entryX=0;entryY=0.5;entryDx=0;entryDy=0;endArrow=none;endFill=0;" edge="1" parent="1" source="ehKbYfIGueKPBCr57h6E-3" target="RLMzL6fTci_8UI5Vc1-A-1">
          <mxGeometry relative="1" as="geometry">
            <Array as="points">
              <mxPoint x="517" y="238" />
              <mxPoint x="560" y="238" />
            </Array>
          </mxGeometry>
        </mxCell>
        <mxCell id="ehKbYfIGueKPBCr57h6E-3" value="Reservation" style="rounded=0;whiteSpace=wrap;html=1;fontStyle=0;strokeWidth=4;container=0;" vertex="1" parent="1">
          <mxGeometry x="399.2056790123456" y="230" width="75.55555555555554" height="29.999999999999996" as="geometry" />
        </mxCell>
        <mxCell id="1ygeVyvk1VY-v8zEGY2U-60" style="edgeStyle=orthogonalEdgeStyle;rounded=0;orthogonalLoop=1;jettySize=auto;html=1;exitX=0;exitY=0.5;exitDx=0;exitDy=0;entryX=0.5;entryY=0;entryDx=0;entryDy=0;endArrow=none;endFill=0;startArrow=classic;startFill=1;strokeWidth=3;" edge="1" parent="1" source="1ygeVyvk1VY-v8zEGY2U-7" target="dsAYrAbXlvFwTesoepJ8-2">
          <mxGeometry relative="1" as="geometry">
            <mxPoint x="738.7901234567901" y="317.5" as="targetPoint" />
          </mxGeometry>
        </mxCell>
        <mxCell id="1ygeVyvk1VY-v8zEGY2U-7" value="Employs" style="rhombus;whiteSpace=wrap;html=1;container=0;" vertex="1" parent="1">
          <mxGeometry x="863.4164197530864" y="176.88" width="67.16049382716048" height="39.99999999999999" as="geometry" />
        </mxCell>
        <mxCell id="1ygeVyvk1VY-v8zEGY2U-59" style="edgeStyle=orthogonalEdgeStyle;rounded=0;orthogonalLoop=1;jettySize=auto;html=1;exitX=0.5;exitY=1;exitDx=0;exitDy=0;entryX=0.5;entryY=0;entryDx=0;entryDy=0;endArrow=none;endFill=0;" edge="1" parent="1" source="dsAYrAbXlvFwTesoepJ8-3" target="1ygeVyvk1VY-v8zEGY2U-7">
          <mxGeometry relative="1" as="geometry" />
        </mxCell>
        <mxCell id="ehKbYfIGueKPBCr57h6E-2" value="Has" style="rhombus;whiteSpace=wrap;html=1;strokeWidth=3;container=0;" vertex="1" parent="1">
          <mxGeometry x="413.9" y="397.5" width="46.17" height="37.5" as="geometry" />
        </mxCell>
        <mxCell id="dsAYrAbXlvFwTesoepJ8-9" value="" style="endArrow=none;html=1;rounded=0;entryX=0;entryY=0.5;entryDx=0;entryDy=0;exitX=1;exitY=0.5;exitDx=0;exitDy=0;" edge="1" parent="1" source="1ygeVyvk1VY-v8zEGY2U-4" target="dsAYrAbXlvFwTesoepJ8-5">
          <mxGeometry width="50" height="50" relative="1" as="geometry">
            <mxPoint x="542.770987654321" y="735" as="sourcePoint" />
            <mxPoint x="584.7462962962962" y="685" as="targetPoint" />
          </mxGeometry>
        </mxCell>
        <mxCell id="dsAYrAbXlvFwTesoepJ8-4" value="Services" style="rounded=0;whiteSpace=wrap;html=1;container=0;" vertex="1" parent="1">
          <mxGeometry x="741.6330864197531" y="457.5" width="50.37037037037037" height="29.999999999999996" as="geometry" />
        </mxCell>
        <mxCell id="1ygeVyvk1VY-v8zEGY2U-12" style="edgeStyle=orthogonalEdgeStyle;rounded=0;orthogonalLoop=1;jettySize=auto;html=1;exitX=1;exitY=0.5;exitDx=0;exitDy=0;entryX=0;entryY=0.5;entryDx=0;entryDy=0;endArrow=none;endFill=0;startArrow=classic;startFill=1;" edge="1" parent="1" source="1ygeVyvk1VY-v8zEGY2U-10" target="1ygeVyvk1VY-v8zEGY2U-5">
          <mxGeometry relative="1" as="geometry" />
        </mxCell>
        <mxCell id="1ygeVyvk1VY-v8zEGY2U-10" value="Use" style="rhombus;whiteSpace=wrap;html=1;container=0;" vertex="1" parent="1">
          <mxGeometry x="850.0013580246912" y="452.5" width="50.37037037037037" height="39.99999999999999" as="geometry" />
        </mxCell>
        <mxCell id="1ygeVyvk1VY-v8zEGY2U-13" style="edgeStyle=orthogonalEdgeStyle;rounded=0;orthogonalLoop=1;jettySize=auto;html=1;exitX=1;exitY=0.5;exitDx=0;exitDy=0;entryX=0;entryY=0.5;entryDx=0;entryDy=0;endArrow=none;endFill=0;" edge="1" parent="1" source="dsAYrAbXlvFwTesoepJ8-4" target="1ygeVyvk1VY-v8zEGY2U-10">
          <mxGeometry relative="1" as="geometry">
            <Array as="points">
              <mxPoint x="842" y="473" />
            </Array>
          </mxGeometry>
        </mxCell>
        <mxCell id="ehKbYfIGueKPBCr57h6E-5" value="" style="endArrow=classic;html=1;rounded=0;entryX=1;entryY=0.5;entryDx=0;entryDy=0;exitX=0;exitY=0.5;exitDx=0;exitDy=0;strokeWidth=3;" edge="1" parent="1" source="dsAYrAbXlvFwTesoepJ8-1" target="dsAYrAbXlvFwTesoepJ8-5">
          <mxGeometry width="50" height="50" relative="1" as="geometry">
            <mxPoint x="500.7956790123456" y="655" as="sourcePoint" />
            <mxPoint x="416.8450617283951" y="705" as="targetPoint" />
            <Array as="points" />
          </mxGeometry>
        </mxCell>
        <mxCell id="ehKbYfIGueKPBCr57h6E-15" value="" style="endArrow=classic;html=1;rounded=0;exitX=0.5;exitY=1;exitDx=0;exitDy=0;targetPerimeterSpacing=7;endSize=6;startSize=5;sourcePerimeterSpacing=9;strokeWidth=4;entryX=0.5;entryY=0;entryDx=0;entryDy=0;" edge="1" parent="1" source="ehKbYfIGueKPBCr57h6E-3" target="ehKbYfIGueKPBCr57h6E-2">
          <mxGeometry width="50" height="50" relative="1" as="geometry">
            <mxPoint x="545.8548148148147" y="250" as="sourcePoint" />
            <mxPoint x="545.8548148148147" y="330" as="targetPoint" />
          </mxGeometry>
        </mxCell>
        <mxCell id="1ygeVyvk1VY-v8zEGY2U-21" value="Name" style="ellipse;whiteSpace=wrap;html=1;container=0;" vertex="1" parent="1">
          <mxGeometry x="831.2383950617284" y="216.88" width="58.76543209876544" height="29.999999999999996" as="geometry" />
        </mxCell>
        <mxCell id="1ygeVyvk1VY-v8zEGY2U-22" value="&lt;font style=&quot;font-size: 8px;&quot;&gt;ProductType&lt;/font&gt;" style="ellipse;whiteSpace=wrap;html=1;container=0;" vertex="1" parent="1">
          <mxGeometry x="886.1092592592591" y="512.5" width="50.37037037037037" height="29.999999999999996" as="geometry" />
        </mxCell>
        <mxCell id="dsAYrAbXlvFwTesoepJ8-18" style="edgeStyle=orthogonalEdgeStyle;rounded=0;orthogonalLoop=1;jettySize=auto;html=1;exitX=0.5;exitY=1;exitDx=0;exitDy=0;" edge="1" parent="1">
          <mxGeometry relative="1" as="geometry">
            <mxPoint x="379.06728395061725" y="675" as="sourcePoint" />
            <mxPoint x="379.06728395061725" y="675" as="targetPoint" />
          </mxGeometry>
        </mxCell>
        <mxCell id="1ygeVyvk1VY-v8zEGY2U-26" value="Street Address" style="ellipse;whiteSpace=wrap;html=1;container=0;fontStyle=4" vertex="1" parent="1">
          <mxGeometry x="930" y="165.94" width="74.49" height="30" as="geometry" />
        </mxCell>
        <mxCell id="ehKbYfIGueKPBCr57h6E-16" value="" style="endArrow=none;html=1;rounded=0;exitX=0.5;exitY=0;exitDx=0;exitDy=0;entryX=0.5;entryY=1;entryDx=0;entryDy=0;" edge="1" parent="1" source="dsAYrAbXlvFwTesoepJ8-1" target="ehKbYfIGueKPBCr57h6E-2">
          <mxGeometry width="50" height="50" relative="1" as="geometry">
            <mxPoint x="635.1166666666667" y="645" as="sourcePoint" />
            <mxPoint x="677.091975308642" y="595" as="targetPoint" />
          </mxGeometry>
        </mxCell>
        <mxCell id="1ygeVyvk1VY-v8zEGY2U-34" value="Hours of Operation" style="ellipse;whiteSpace=wrap;html=1;container=0;" vertex="1" parent="1">
          <mxGeometry x="752.8569135802468" y="103.75" width="92.34567901234568" height="29.999999999999996" as="geometry" />
        </mxCell>
        <mxCell id="1ygeVyvk1VY-v8zEGY2U-27" value="City" style="ellipse;whiteSpace=wrap;html=1;container=0;" vertex="1" parent="1">
          <mxGeometry x="759.91" y="143.75" width="71.33" height="26.25" as="geometry" />
        </mxCell>
        <mxCell id="dsAYrAbXlvFwTesoepJ8-22" value="Shampoo &amp;amp; Ear Cleaning" style="whiteSpace=wrap;html=1;container=0;" vertex="1" parent="1">
          <mxGeometry x="807.192098765432" y="542.5" width="64.64197530864197" height="39.99999999999999" as="geometry" />
        </mxCell>
        <mxCell id="dsAYrAbXlvFwTesoepJ8-23" value="Haircut" style="whiteSpace=wrap;html=1;container=0;" vertex="1" parent="1">
          <mxGeometry x="660.2785185185185" y="545" width="41.9753086419753" height="29.999999999999996" as="geometry" />
        </mxCell>
        <mxCell id="ehKbYfIGueKPBCr57h6E-17" value="Service Date" style="ellipse;whiteSpace=wrap;html=1;container=0;" vertex="1" parent="1">
          <mxGeometry x="270" y="170.3" width="72.45" height="34.7" as="geometry" />
        </mxCell>
        <mxCell id="ehKbYfIGueKPBCr57h6E-18" value="&lt;u&gt;RID&lt;/u&gt;" style="ellipse;whiteSpace=wrap;html=1;container=0;" vertex="1" parent="1">
          <mxGeometry x="508.2537037037037" y="170" width="33.58024691358024" height="26.88" as="geometry" />
        </mxCell>
        <mxCell id="1ygeVyvk1VY-v8zEGY2U-32" value="Work Schedule" style="ellipse;whiteSpace=wrap;html=1;container=0;" vertex="1" parent="1">
          <mxGeometry x="669.0027160493827" y="181.5" width="58.76543209876544" height="39.99999999999999" as="geometry" />
        </mxCell>
        <mxCell id="dsAYrAbXlvFwTesoepJ8-24" value="Nail Services" style="whiteSpace=wrap;html=1;container=0;" vertex="1" parent="1">
          <mxGeometry x="665.7353086419753" y="602.4999999999999" width="67.16049382716048" height="29.999999999999996" as="geometry" />
        </mxCell>
        <mxCell id="1ygeVyvk1VY-v8zEGY2U-23" value="&lt;u&gt;Product Code&lt;/u&gt;" style="ellipse;whiteSpace=wrap;html=1;container=0;" vertex="1" parent="1">
          <mxGeometry x="941.88" y="515" width="62.61" height="30" as="geometry" />
        </mxCell>
        <mxCell id="FvDs03gsVKllFDn5LNJ5-7" style="edgeStyle=orthogonalEdgeStyle;rounded=0;orthogonalLoop=1;jettySize=auto;html=1;exitX=0.5;exitY=1;exitDx=0;exitDy=0;endArrow=none;endFill=0;" edge="1" parent="1" source="dsAYrAbXlvFwTesoepJ8-26">
          <mxGeometry relative="1" as="geometry">
            <mxPoint x="833.5933333333334" y="652.5" as="targetPoint" />
          </mxGeometry>
        </mxCell>
        <mxCell id="dsAYrAbXlvFwTesoepJ8-26" value="Teeth Cleaning" style="whiteSpace=wrap;html=1;container=0;" vertex="1" parent="1">
          <mxGeometry x="806.6799999999998" y="602.5" width="53.09" height="30" as="geometry" />
        </mxCell>
        <mxCell id="dsAYrAbXlvFwTesoepJ8-27" value="" style="endArrow=none;html=1;rounded=0;exitX=0;exitY=0.5;exitDx=0;exitDy=0;entryX=0;entryY=0.75;entryDx=0;entryDy=0;" edge="1" parent="1" source="dsAYrAbXlvFwTesoepJ8-26" target="1ygeVyvk1VY-v8zEGY2U-51">
          <mxGeometry width="50" height="50" relative="1" as="geometry">
            <mxPoint x="773.192098765432" y="432.5" as="sourcePoint" />
            <mxPoint x="784.5254320987652" y="597.4999999999999" as="targetPoint" />
          </mxGeometry>
        </mxCell>
        <mxCell id="dsAYrAbXlvFwTesoepJ8-28" value="" style="endArrow=none;html=1;rounded=0;exitX=0;exitY=0.5;exitDx=0;exitDy=0;entryX=0.5;entryY=1;entryDx=0;entryDy=0;" edge="1" parent="1" source="dsAYrAbXlvFwTesoepJ8-22" target="1ygeVyvk1VY-v8zEGY2U-51">
          <mxGeometry width="50" height="50" relative="1" as="geometry">
            <mxPoint x="773.192098765432" y="432.5" as="sourcePoint" />
            <mxPoint x="784.1056790123456" y="578.75" as="targetPoint" />
          </mxGeometry>
        </mxCell>
        <mxCell id="dsAYrAbXlvFwTesoepJ8-29" value="" style="endArrow=none;html=1;rounded=0;exitX=1;exitY=0.5;exitDx=0;exitDy=0;entryX=0.5;entryY=0;entryDx=0;entryDy=0;" edge="1" parent="1" source="dsAYrAbXlvFwTesoepJ8-23" target="1ygeVyvk1VY-v8zEGY2U-51">
          <mxGeometry width="50" height="50" relative="1" as="geometry">
            <mxPoint x="714.4266666666666" y="487.5" as="sourcePoint" />
            <mxPoint x="763.1180246913578" y="578.75" as="targetPoint" />
          </mxGeometry>
        </mxCell>
        <mxCell id="dsAYrAbXlvFwTesoepJ8-30" value="" style="endArrow=none;html=1;rounded=0;entryX=0.5;entryY=0;entryDx=0;entryDy=0;exitX=0;exitY=0.25;exitDx=0;exitDy=0;" edge="1" parent="1" source="1ygeVyvk1VY-v8zEGY2U-51" target="dsAYrAbXlvFwTesoepJ8-24">
          <mxGeometry width="50" height="50" relative="1" as="geometry">
            <mxPoint x="762.6982716049381" y="578.4999999999999" as="sourcePoint" />
            <mxPoint x="742.1303703703701" y="527.5" as="targetPoint" />
          </mxGeometry>
        </mxCell>
        <mxCell id="1ygeVyvk1VY-v8zEGY2U-36" value="&lt;u&gt;SIN&amp;nbsp;&lt;/u&gt;" style="ellipse;whiteSpace=wrap;html=1;container=0;" vertex="1" parent="1">
          <mxGeometry x="654.4028395061728" y="244" width="47.851851851851855" height="29.999999999999996" as="geometry" />
        </mxCell>
        <mxCell id="1ygeVyvk1VY-v8zEGY2U-19" value="Name" style="ellipse;whiteSpace=wrap;html=1;container=0;fontStyle=4" vertex="1" parent="1">
          <mxGeometry x="219.99407407407406" y="575" width="58.76543209876544" height="29.999999999999996" as="geometry" />
        </mxCell>
        <mxCell id="ehKbYfIGueKPBCr57h6E-21" value="Books" style="rhombus;whiteSpace=wrap;html=1;container=0;" vertex="1" parent="1">
          <mxGeometry x="278.75691358024693" y="385" width="67.16049382716048" height="50" as="geometry" />
        </mxCell>
        <mxCell id="dsAYrAbXlvFwTesoepJ8-39" value="Total&amp;nbsp;&lt;br&gt;Overlapping" style="text;html=1;align=center;verticalAlign=middle;resizable=0;points=[];autosize=1;strokeColor=none;fillColor=none;container=0;" vertex="1" parent="1">
          <mxGeometry x="683.5577777777778" y="502.5" width="90" height="40" as="geometry" />
        </mxCell>
        <mxCell id="ehKbYfIGueKPBCr57h6E-28" value="" style="endArrow=none;html=1;rounded=0;exitX=0.5;exitY=1;exitDx=0;exitDy=0;entryX=0.25;entryY=0;entryDx=0;entryDy=0;" edge="1" parent="1" source="ehKbYfIGueKPBCr57h6E-17" target="ehKbYfIGueKPBCr57h6E-3">
          <mxGeometry width="50" height="50" relative="1" as="geometry">
            <mxPoint x="456.2962962962963" y="310" as="sourcePoint" />
            <mxPoint x="498.2716049382716" y="260" as="targetPoint" />
          </mxGeometry>
        </mxCell>
        <mxCell id="ehKbYfIGueKPBCr57h6E-29" value="" style="endArrow=none;html=1;rounded=0;entryX=0.5;entryY=1;entryDx=0;entryDy=0;exitX=1;exitY=0;exitDx=0;exitDy=0;" edge="1" parent="1" source="ehKbYfIGueKPBCr57h6E-3" target="ehKbYfIGueKPBCr57h6E-18">
          <mxGeometry width="50" height="50" relative="1" as="geometry">
            <mxPoint x="560.8148148148148" y="225" as="sourcePoint" />
            <mxPoint x="602.7901234567901" y="175" as="targetPoint" />
          </mxGeometry>
        </mxCell>
        <mxCell id="dsAYrAbXlvFwTesoepJ8-42" value="" style="endArrow=none;html=1;rounded=0;entryX=0;entryY=0;entryDx=0;entryDy=0;exitX=0.75;exitY=1;exitDx=0;exitDy=0;" edge="1" parent="1" source="dsAYrAbXlvFwTesoepJ8-3" target="1ygeVyvk1VY-v8zEGY2U-26">
          <mxGeometry width="50" height="50" relative="1" as="geometry">
            <mxPoint x="580.872962962963" y="175.94" as="sourcePoint" />
            <mxPoint x="979.2119753086419" y="166.8800000000001" as="targetPoint" />
          </mxGeometry>
        </mxCell>
        <mxCell id="ehKbYfIGueKPBCr57h6E-31" value="" style="endArrow=none;html=1;rounded=0;exitX=1;exitY=0;exitDx=0;exitDy=0;entryX=0.5;entryY=1;entryDx=0;entryDy=0;" edge="1" parent="1" source="1ygeVyvk1VY-v8zEGY2U-4" target="ehKbYfIGueKPBCr57h6E-21">
          <mxGeometry width="50" height="50" relative="1" as="geometry">
            <mxPoint x="507.51172839506177" y="695" as="sourcePoint" />
            <mxPoint x="278.86716049382716" y="538" as="targetPoint" />
          </mxGeometry>
        </mxCell>
        <mxCell id="dsAYrAbXlvFwTesoepJ8-43" value="" style="endArrow=none;html=1;rounded=0;exitX=1;exitY=0.5;exitDx=0;exitDy=0;entryX=0;entryY=0.5;entryDx=0;entryDy=0;" edge="1" parent="1" source="1ygeVyvk1VY-v8zEGY2U-34" target="dsAYrAbXlvFwTesoepJ8-3">
          <mxGeometry width="50" height="50" relative="1" as="geometry">
            <mxPoint x="580.872962962963" y="348.75" as="sourcePoint" />
            <mxPoint x="622.8482716049382" y="298.75" as="targetPoint" />
          </mxGeometry>
        </mxCell>
        <mxCell id="ehKbYfIGueKPBCr57h6E-30" value="" style="endArrow=classic;html=1;rounded=0;entryX=0.5;entryY=0;entryDx=0;entryDy=0;strokeWidth=4;" edge="1" parent="1" target="ehKbYfIGueKPBCr57h6E-21">
          <mxGeometry width="50" height="50" relative="1" as="geometry">
            <mxPoint x="400" y="240" as="sourcePoint" />
            <mxPoint x="372.34567901234567" y="280" as="targetPoint" />
            <Array as="points">
              <mxPoint x="312" y="240" />
            </Array>
          </mxGeometry>
        </mxCell>
        <mxCell id="ehKbYfIGueKPBCr57h6E-33" value="" style="endArrow=none;html=1;rounded=0;exitX=0.5;exitY=1;exitDx=0;exitDy=0;entryX=0;entryY=0;entryDx=0;entryDy=0;" edge="1" parent="1" source="1ygeVyvk1VY-v8zEGY2U-19" target="1ygeVyvk1VY-v8zEGY2U-4">
          <mxGeometry width="50" height="50" relative="1" as="geometry">
            <mxPoint x="297.6351851851852" y="765" as="sourcePoint" />
            <mxPoint x="339.61049382716044" y="715" as="targetPoint" />
          </mxGeometry>
        </mxCell>
        <mxCell id="ehKbYfIGueKPBCr57h6E-34" value="" style="endArrow=none;html=1;rounded=0;entryX=0.5;entryY=1;entryDx=0;entryDy=0;" edge="1" parent="1" target="1ygeVyvk1VY-v8zEGY2U-4">
          <mxGeometry width="50" height="50" relative="1" as="geometry">
            <mxPoint x="260" y="680" as="sourcePoint" />
            <mxPoint x="415.16604938271604" y="755" as="targetPoint" />
          </mxGeometry>
        </mxCell>
        <mxCell id="ehKbYfIGueKPBCr57h6E-37" value="Has" style="rhombus;whiteSpace=wrap;html=1;container=0;" vertex="1" parent="1">
          <mxGeometry x="817.8146913580247" y="402.5" width="47.01234567901235" height="39.99999999999999" as="geometry" />
        </mxCell>
        <mxCell id="1ygeVyvk1VY-v8zEGY2U-51" value="IsA" style="triangle;whiteSpace=wrap;html=1;rotation=-90;direction=east;container=0;" vertex="1" parent="1">
          <mxGeometry x="752.8569135802468" y="542.5" width="29.38271604938272" height="50" as="geometry" />
        </mxCell>
        <mxCell id="ehKbYfIGueKPBCr57h6E-40" value="" style="endArrow=none;html=1;rounded=0;entryX=0.117;entryY=1;entryDx=0;entryDy=0;entryPerimeter=0;exitX=0.5;exitY=0;exitDx=0;exitDy=0;" edge="1" parent="1" source="ehKbYfIGueKPBCr57h6E-37" target="ehKbYfIGueKPBCr57h6E-1">
          <mxGeometry width="50" height="50" relative="1" as="geometry">
            <mxPoint x="841" y="400" as="sourcePoint" />
            <mxPoint x="859.7856790123456" y="387.5" as="targetPoint" />
          </mxGeometry>
        </mxCell>
        <mxCell id="ehKbYfIGueKPBCr57h6E-41" value="Phone Number" style="ellipse;whiteSpace=wrap;html=1;fontStyle=4;container=0;" vertex="1" parent="1">
          <mxGeometry x="219.99024691358025" y="677.5" width="65.48148148148147" height="34.99999999999999" as="geometry" />
        </mxCell>
        <mxCell id="dsAYrAbXlvFwTesoepJ8-44" value="Name" style="ellipse;whiteSpace=wrap;html=1;container=0;" vertex="1" parent="1">
          <mxGeometry x="391.66024691358024" y="660" width="50.37037037037037" height="29.999999999999996" as="geometry" />
        </mxCell>
        <mxCell id="dsAYrAbXlvFwTesoepJ8-45" value="Size" style="ellipse;whiteSpace=wrap;html=1;container=0;" vertex="1" parent="1">
          <mxGeometry x="391.65654320987653" y="573.75" width="50.37037037037037" height="29.999999999999996" as="geometry" />
        </mxCell>
        <mxCell id="ehKbYfIGueKPBCr57h6E-47" value="&lt;font style=&quot;font-size: 9px;&quot;&gt;Room Type&lt;/font&gt;" style="ellipse;whiteSpace=wrap;html=1;container=0;" vertex="1" parent="1">
          <mxGeometry x="859.7856790123456" y="297.5" width="52.888888888888886" height="29.999999999999996" as="geometry" />
        </mxCell>
        <mxCell id="ehKbYfIGueKPBCr57h6E-48" value="" style="endArrow=none;html=1;rounded=0;exitX=0.5;exitY=0;exitDx=0;exitDy=0;" edge="1" parent="1" source="ehKbYfIGueKPBCr57h6E-1">
          <mxGeometry width="50" height="50" relative="1" as="geometry">
            <mxPoint x="929.4646913580247" y="387.5" as="sourcePoint" />
            <mxPoint x="887.4893827160492" y="327.5" as="targetPoint" />
          </mxGeometry>
        </mxCell>
        <mxCell id="ehKbYfIGueKPBCr57h6E-49" value="" style="endArrow=none;html=1;rounded=0;exitX=1;exitY=0.5;exitDx=0;exitDy=0;entryX=0.5;entryY=1;entryDx=0;entryDy=0;" edge="1" parent="1" source="ehKbYfIGueKPBCr57h6E-1" target="ehKbYfIGueKPBCr57h6E-50">
          <mxGeometry width="50" height="50" relative="1" as="geometry">
            <mxPoint x="912.6745679012345" y="357.5" as="sourcePoint" />
            <mxPoint x="931" y="345" as="targetPoint" />
          </mxGeometry>
        </mxCell>
        <mxCell id="ehKbYfIGueKPBCr57h6E-50" value="&lt;u&gt;&lt;font style=&quot;font-size: 11px;&quot;&gt;Room Number&lt;/font&gt;&lt;/u&gt;" style="ellipse;whiteSpace=wrap;html=1;container=0;" vertex="1" parent="1">
          <mxGeometry x="921.0696296296296" y="307.5" width="50.37037037037037" height="39.99999999999999" as="geometry" />
        </mxCell>
        <mxCell id="ehKbYfIGueKPBCr57h6E-53" value="" style="endArrow=none;html=1;rounded=0;exitX=0;exitY=0.5;exitDx=0;exitDy=0;" edge="1" parent="1" source="ehKbYfIGueKPBCr57h6E-54">
          <mxGeometry width="50" height="50" relative="1" as="geometry">
            <mxPoint x="886.1056790123455" y="592.4999999999999" as="sourcePoint" />
            <mxPoint x="871.8340740740739" y="582.5" as="targetPoint" />
          </mxGeometry>
        </mxCell>
        <mxCell id="dsAYrAbXlvFwTesoepJ8-47" value="Address" style="ellipse;whiteSpace=wrap;html=1;container=0;" vertex="1" parent="1">
          <mxGeometry x="310.7728395061728" y="665" width="58.76543209876544" height="29.999999999999996" as="geometry" />
        </mxCell>
        <mxCell id="ehKbYfIGueKPBCr57h6E-54" value="Fur Type" style="ellipse;whiteSpace=wrap;html=1;container=0;" vertex="1" parent="1">
          <mxGeometry x="891.5624691358022" y="592.4999999999999" width="55.82716049382716" height="19.999999999999996" as="geometry" />
        </mxCell>
        <mxCell id="dsAYrAbXlvFwTesoepJ8-48" value="Cleanliness Level" style="ellipse;whiteSpace=wrap;html=1;container=0;" vertex="1" parent="1">
          <mxGeometry x="936.4799999999998" y="547.5" width="74.94" height="40" as="geometry" />
        </mxCell>
        <mxCell id="ehKbYfIGueKPBCr57h6E-55" value="&lt;font style=&quot;font-size: 10px;&quot;&gt;Fur Length&amp;nbsp;&lt;/font&gt;" style="ellipse;whiteSpace=wrap;html=1;container=0;" vertex="1" parent="1">
          <mxGeometry x="583.48" y="565" width="66.52" height="25" as="geometry" />
        </mxCell>
        <mxCell id="ehKbYfIGueKPBCr57h6E-56" value="" style="endArrow=none;html=1;rounded=0;exitX=1;exitY=0.5;exitDx=0;exitDy=0;entryX=0;entryY=0;entryDx=0;entryDy=0;" edge="1" parent="1" source="ehKbYfIGueKPBCr57h6E-69" target="dsAYrAbXlvFwTesoepJ8-23">
          <mxGeometry width="50" height="50" relative="1" as="geometry">
            <mxPoint x="635.3556040476751" y="548.0551815386359" as="sourcePoint" />
            <mxPoint x="628.9300000000001" y="537.5" as="targetPoint" />
          </mxGeometry>
        </mxCell>
        <mxCell id="dsAYrAbXlvFwTesoepJ8-50" value="" style="endArrow=none;html=1;rounded=0;entryX=1;entryY=0.5;entryDx=0;entryDy=0;exitX=0;exitY=0.5;exitDx=0;exitDy=0;" edge="1" parent="1" target="dsAYrAbXlvFwTesoepJ8-22">
          <mxGeometry width="50" height="50" relative="1" as="geometry">
            <mxPoint x="936.4799999999998" y="572.5" as="sourcePoint" />
            <mxPoint x="729.118024691358" y="472.5" as="targetPoint" />
          </mxGeometry>
        </mxCell>
        <mxCell id="ehKbYfIGueKPBCr57h6E-58" value="" style="endArrow=none;html=1;rounded=0;exitX=1;exitY=1;exitDx=0;exitDy=0;entryX=0;entryY=0;entryDx=0;entryDy=0;" edge="1" parent="1" source="1ygeVyvk1VY-v8zEGY2U-4" target="dsAYrAbXlvFwTesoepJ8-47">
          <mxGeometry width="50" height="50" relative="1" as="geometry">
            <mxPoint x="406.77098765432095" y="865" as="sourcePoint" />
            <mxPoint x="448.7462962962963" y="815" as="targetPoint" />
          </mxGeometry>
        </mxCell>
        <mxCell id="ehKbYfIGueKPBCr57h6E-60" value="" style="endArrow=none;html=1;rounded=0;entryX=1;entryY=1;entryDx=0;entryDy=0;" edge="1" parent="1" source="dsAYrAbXlvFwTesoepJ8-1" target="dsAYrAbXlvFwTesoepJ8-45">
          <mxGeometry width="50" height="50" relative="1" as="geometry">
            <mxPoint x="507.51172839506177" y="645" as="sourcePoint" />
            <mxPoint x="549.487037037037" y="605" as="targetPoint" />
          </mxGeometry>
        </mxCell>
        <mxCell id="ehKbYfIGueKPBCr57h6E-61" value="" style="endArrow=none;html=1;rounded=0;exitX=0.5;exitY=0;exitDx=0;exitDy=0;entryX=0;entryY=1;entryDx=0;entryDy=0;" edge="1" parent="1" source="dsAYrAbXlvFwTesoepJ8-44" target="dsAYrAbXlvFwTesoepJ8-1">
          <mxGeometry width="50" height="50" relative="1" as="geometry">
            <mxPoint x="566.2771604938271" y="745" as="sourcePoint" />
            <mxPoint x="591.4623456790123" y="725" as="targetPoint" />
          </mxGeometry>
        </mxCell>
        <mxCell id="1ygeVyvk1VY-v8zEGY2U-65" value="Dental Condition" style="ellipse;whiteSpace=wrap;html=1;container=0;" vertex="1" parent="1">
          <mxGeometry x="792" y="652.5" width="90.36" height="27.5" as="geometry" />
        </mxCell>
        <mxCell id="ehKbYfIGueKPBCr57h6E-62" value="&lt;u&gt;AID&lt;/u&gt;" style="ellipse;whiteSpace=wrap;html=1;container=0;" vertex="1" parent="1">
          <mxGeometry x="533.95" y="647.5" width="36.05" height="30" as="geometry" />
        </mxCell>
        <mxCell id="ehKbYfIGueKPBCr57h6E-63" value="" style="endArrow=none;html=1;rounded=0;exitX=0.75;exitY=1;exitDx=0;exitDy=0;entryX=0.5;entryY=0;entryDx=0;entryDy=0;" edge="1" parent="1" source="dsAYrAbXlvFwTesoepJ8-1">
          <mxGeometry width="50" height="50" relative="1" as="geometry">
            <mxPoint x="515.9067901234567" y="745" as="sourcePoint" />
            <mxPoint x="533.9475308641977" y="665" as="targetPoint" />
          </mxGeometry>
        </mxCell>
        <mxCell id="ehKbYfIGueKPBCr57h6E-64" value="" style="endArrow=none;html=1;rounded=0;exitX=1;exitY=1;exitDx=0;exitDy=0;entryX=0.25;entryY=0;entryDx=0;entryDy=0;" edge="1" parent="1" source="1ygeVyvk1VY-v8zEGY2U-32" target="dsAYrAbXlvFwTesoepJ8-2">
          <mxGeometry width="50" height="50" relative="1" as="geometry">
            <mxPoint x="682.9629629629629" y="300" as="sourcePoint" />
            <mxPoint x="724.9382716049382" y="250" as="targetPoint" />
          </mxGeometry>
        </mxCell>
        <mxCell id="ehKbYfIGueKPBCr57h6E-66" value="" style="endArrow=none;html=1;rounded=0;entryX=0.208;entryY=1.031;entryDx=0;entryDy=0;entryPerimeter=0;exitX=1;exitY=0.5;exitDx=0;exitDy=0;" edge="1" parent="1" source="1ygeVyvk1VY-v8zEGY2U-36" target="dsAYrAbXlvFwTesoepJ8-2">
          <mxGeometry width="50" height="50" relative="1" as="geometry">
            <mxPoint x="682.9629629629629" y="460" as="sourcePoint" />
            <mxPoint x="724.9382716049382" y="410" as="targetPoint" />
          </mxGeometry>
        </mxCell>
        <mxCell id="1ygeVyvk1VY-v8zEGY2U-52" style="edgeStyle=orthogonalEdgeStyle;rounded=0;orthogonalLoop=1;jettySize=auto;html=1;exitX=0.5;exitY=1;exitDx=0;exitDy=0;entryX=1;entryY=0.5;entryDx=0;entryDy=0;endArrow=none;endFill=0;" edge="1" parent="1" source="dsAYrAbXlvFwTesoepJ8-4" target="1ygeVyvk1VY-v8zEGY2U-51">
          <mxGeometry relative="1" as="geometry" />
        </mxCell>
        <mxCell id="ehKbYfIGueKPBCr57h6E-67" value="" style="endArrow=none;html=1;rounded=0;entryX=0;entryY=0.5;entryDx=0;entryDy=0;exitX=1;exitY=0.5;exitDx=0;exitDy=0;" edge="1" parent="1" source="dsAYrAbXlvFwTesoepJ8-2" target="1ygeVyvk1VY-v8zEGY2U-21">
          <mxGeometry width="50" height="50" relative="1" as="geometry">
            <mxPoint x="820" y="210" as="sourcePoint" />
            <mxPoint x="825.679012345679" y="360" as="targetPoint" />
          </mxGeometry>
        </mxCell>
        <mxCell id="1ygeVyvk1VY-v8zEGY2U-67" value="Sensitivity" style="ellipse;whiteSpace=wrap;html=1;container=0;" vertex="1" parent="1">
          <mxGeometry x="657.38" y="652.5" width="75.52" height="27.5" as="geometry" />
        </mxCell>
        <mxCell id="wlC_-Lx5bj7dAYGHCpfk-15" style="edgeStyle=orthogonalEdgeStyle;rounded=0;orthogonalLoop=1;jettySize=auto;html=1;exitX=1;exitY=0.5;exitDx=0;exitDy=0;entryX=0.25;entryY=0;entryDx=0;entryDy=0;endArrow=none;endFill=0;" edge="1" parent="1" source="dsAYrAbXlvFwTesoepJ8-51" target="dsAYrAbXlvFwTesoepJ8-4">
          <mxGeometry relative="1" as="geometry" />
        </mxCell>
        <mxCell id="dsAYrAbXlvFwTesoepJ8-51" value="&lt;span&gt;Duration&lt;/span&gt;" style="ellipse;whiteSpace=wrap;html=1;container=0;fontStyle=0" vertex="1" parent="1">
          <mxGeometry x="651.9200000000001" y="372.5" width="58.69" height="30" as="geometry" />
        </mxCell>
        <mxCell id="ehKbYfIGueKPBCr57h6E-69" value="Fur Type" style="ellipse;whiteSpace=wrap;html=1;container=0;" vertex="1" parent="1">
          <mxGeometry x="586" y="517.5" width="58" height="30" as="geometry" />
        </mxCell>
        <mxCell id="ehKbYfIGueKPBCr57h6E-70" value="" style="endArrow=none;html=1;rounded=0;exitX=1;exitY=0.5;exitDx=0;exitDy=0;entryX=0;entryY=1;entryDx=0;entryDy=0;" edge="1" parent="1" source="ehKbYfIGueKPBCr57h6E-55" target="dsAYrAbXlvFwTesoepJ8-23">
          <mxGeometry width="50" height="50" relative="1" as="geometry">
            <mxPoint x="642.29" y="577.5" as="sourcePoint" />
            <mxPoint x="656.9300000000001" y="577.5" as="targetPoint" />
          </mxGeometry>
        </mxCell>
        <mxCell id="dsAYrAbXlvFwTesoepJ8-53" value="Base Amount" style="ellipse;whiteSpace=wrap;html=1;container=0;fontStyle=0" vertex="1" parent="1">
          <mxGeometry x="625" y="427.5" width="58.56" height="30" as="geometry" />
        </mxCell>
        <mxCell id="dsAYrAbXlvFwTesoepJ8-55" value="Type" style="ellipse;whiteSpace=wrap;html=1;container=0;" vertex="1" parent="1">
          <mxGeometry x="450.42074074074077" y="677.5" width="58.76543209876544" height="29.999999999999996" as="geometry" />
        </mxCell>
        <mxCell id="1ygeVyvk1VY-v8zEGY2U-71" value="Age" style="ellipse;whiteSpace=wrap;html=1;container=0;" vertex="1" parent="1">
          <mxGeometry x="541.8354320987654" y="605" width="33.160493827160494" height="27.5" as="geometry" />
        </mxCell>
        <mxCell id="dsAYrAbXlvFwTesoepJ8-57" value="" style="endArrow=none;html=1;rounded=0;entryX=0.5;entryY=1;entryDx=0;entryDy=0;" edge="1" parent="1" source="dsAYrAbXlvFwTesoepJ8-55" target="dsAYrAbXlvFwTesoepJ8-1">
          <mxGeometry width="50" height="50" relative="1" as="geometry">
            <mxPoint x="608.2524691358024" y="805" as="sourcePoint" />
            <mxPoint x="650.2277777777776" y="755" as="targetPoint" />
          </mxGeometry>
        </mxCell>
        <mxCell id="1ygeVyvk1VY-v8zEGY2U-73" value="&lt;span&gt;Name&lt;/span&gt;" style="ellipse;whiteSpace=wrap;html=1;container=0;fontStyle=0" vertex="1" parent="1">
          <mxGeometry x="807.1899999999998" y="482.5" width="34.62" height="35" as="geometry" />
        </mxCell>
        <mxCell id="ehKbYfIGueKPBCr57h6E-74" value="" style="endArrow=none;html=1;rounded=0;entryX=0.433;entryY=1.038;entryDx=0;entryDy=0;entryPerimeter=0;exitX=0.5;exitY=0;exitDx=0;exitDy=0;" edge="1" parent="1" source="1ygeVyvk1VY-v8zEGY2U-67" target="dsAYrAbXlvFwTesoepJ8-24">
          <mxGeometry width="50" height="50" relative="1" as="geometry">
            <mxPoint x="594.797037037037" y="712.5" as="sourcePoint" />
            <mxPoint x="636.7723456790123" y="662.5" as="targetPoint" />
          </mxGeometry>
        </mxCell>
        <mxCell id="1ygeVyvk1VY-v8zEGY2U-75" style="edgeStyle=orthogonalEdgeStyle;rounded=0;orthogonalLoop=1;jettySize=auto;html=1;exitX=1;exitY=1;exitDx=0;exitDy=0;entryX=0;entryY=0;entryDx=0;entryDy=0;endArrow=none;endFill=0;" edge="1" parent="1" source="dsAYrAbXlvFwTesoepJ8-4" target="1ygeVyvk1VY-v8zEGY2U-73">
          <mxGeometry relative="1" as="geometry" />
        </mxCell>
        <mxCell id="wlC_-Lx5bj7dAYGHCpfk-2" style="edgeStyle=orthogonalEdgeStyle;rounded=0;orthogonalLoop=1;jettySize=auto;html=1;exitX=1;exitY=0.5;exitDx=0;exitDy=0;endArrow=none;endFill=0;startArrow=none;startFill=0;entryX=0;entryY=0.5;entryDx=0;entryDy=0;" edge="1" parent="1" source="RLMzL6fTci_8UI5Vc1-A-1" target="dsAYrAbXlvFwTesoepJ8-2">
          <mxGeometry relative="1" as="geometry">
            <mxPoint x="740" y="240" as="targetPoint" />
            <Array as="points" />
          </mxGeometry>
        </mxCell>
        <mxCell id="RLMzL6fTci_8UI5Vc1-A-1" value="Has" style="rhombus;whiteSpace=wrap;html=1;" vertex="1" parent="1">
          <mxGeometry x="570" y="213" width="55" height="47" as="geometry" />
        </mxCell>
        <mxCell id="wlC_-Lx5bj7dAYGHCpfk-11" style="edgeStyle=orthogonalEdgeStyle;rounded=0;orthogonalLoop=1;jettySize=auto;html=1;exitX=0.5;exitY=1;exitDx=0;exitDy=0;entryX=0;entryY=0.75;entryDx=0;entryDy=0;endArrow=none;endFill=0;" edge="1" parent="1" source="FvDs03gsVKllFDn5LNJ5-11" target="dsAYrAbXlvFwTesoepJ8-4">
          <mxGeometry relative="1" as="geometry">
            <mxPoint x="470" y="909.9999999999998" as="targetPoint" />
            <Array as="points">
              <mxPoint x="204" y="750" />
              <mxPoint x="580" y="750" />
              <mxPoint x="580" y="480" />
            </Array>
          </mxGeometry>
        </mxCell>
        <mxCell id="FvDs03gsVKllFDn5LNJ5-11" value="Has" style="rhombus;whiteSpace=wrap;html=1;" vertex="1" parent="1">
          <mxGeometry x="178.3499999999999" y="165.94" width="51.65" height="35" as="geometry" />
        </mxCell>
        <mxCell id="FvDs03gsVKllFDn5LNJ5-16" style="edgeStyle=orthogonalEdgeStyle;rounded=0;orthogonalLoop=1;jettySize=auto;html=1;exitX=0.5;exitY=1;exitDx=0;exitDy=0;" edge="1" parent="1" source="1ygeVyvk1VY-v8zEGY2U-4" target="1ygeVyvk1VY-v8zEGY2U-4">
          <mxGeometry relative="1" as="geometry" />
        </mxCell>
        <mxCell id="FvDs03gsVKllFDn5LNJ5-20" value="" style="endArrow=none;html=1;rounded=0;entryX=1;entryY=1;entryDx=0;entryDy=0;" edge="1" parent="1" target="dsAYrAbXlvFwTesoepJ8-1">
          <mxGeometry width="50" height="50" relative="1" as="geometry">
            <mxPoint x="507.51172839506177" y="645" as="sourcePoint" />
            <mxPoint x="449.45" y="621" as="targetPoint" />
          </mxGeometry>
        </mxCell>
        <mxCell id="FvDs03gsVKllFDn5LNJ5-37" style="edgeStyle=orthogonalEdgeStyle;rounded=0;orthogonalLoop=1;jettySize=auto;html=1;exitX=1;exitY=0;exitDx=0;exitDy=0;entryX=0;entryY=0.5;entryDx=0;entryDy=0;endArrow=none;endFill=0;" edge="1" parent="1" source="dsAYrAbXlvFwTesoepJ8-1" target="1ygeVyvk1VY-v8zEGY2U-71">
          <mxGeometry relative="1" as="geometry">
            <Array as="points">
              <mxPoint x="509" y="620" />
              <mxPoint x="570" y="620" />
            </Array>
          </mxGeometry>
        </mxCell>
        <mxCell id="dsAYrAbXlvFwTesoepJ8-1" value="Pet" style="rounded=0;whiteSpace=wrap;html=1;container=0;" vertex="1" parent="1">
          <mxGeometry x="450.42" y="615" width="59.58" height="30" as="geometry" />
        </mxCell>
        <mxCell id="FvDs03gsVKllFDn5LNJ5-28" value="" style="edgeStyle=orthogonalEdgeStyle;rounded=0;orthogonalLoop=1;jettySize=auto;html=1;exitX=0.5;exitY=0;exitDx=0;exitDy=0;endArrow=none;endFill=0;" edge="1" parent="1" source="1ygeVyvk1VY-v8zEGY2U-5" target="1ygeVyvk1VY-v8zEGY2U-70">
          <mxGeometry relative="1" as="geometry">
            <mxPoint x="921.4996296296297" y="45.00000000000006" as="targetPoint" />
            <mxPoint x="923.87" y="215" as="sourcePoint" />
          </mxGeometry>
        </mxCell>
        <mxCell id="1ygeVyvk1VY-v8zEGY2U-70" value="Quantity" style="ellipse;whiteSpace=wrap;html=1;container=0;" vertex="1" parent="1">
          <mxGeometry x="924.7944444444443" y="405" width="50.37037037037037" height="29.999999999999996" as="geometry" />
        </mxCell>
        <mxCell id="FvDs03gsVKllFDn5LNJ5-43" value="" style="endArrow=none;html=1;rounded=0;exitX=1;exitY=0.5;exitDx=0;exitDy=0;entryX=0;entryY=0.75;entryDx=0;entryDy=0;" edge="1" parent="1" source="1ygeVyvk1VY-v8zEGY2U-27" target="dsAYrAbXlvFwTesoepJ8-3">
          <mxGeometry width="50" height="50" relative="1" as="geometry">
            <mxPoint x="809.78" y="173.75" as="sourcePoint" />
            <mxPoint x="859.78" y="123.75" as="targetPoint" />
          </mxGeometry>
        </mxCell>
        <mxCell id="FvDs03gsVKllFDn5LNJ5-49" value="" style="endArrow=none;html=1;rounded=0;entryX=1;entryY=0;entryDx=0;entryDy=0;exitX=0.5;exitY=1;exitDx=0;exitDy=0;" edge="1" parent="1" source="ehKbYfIGueKPBCr57h6E-37" target="dsAYrAbXlvFwTesoepJ8-4">
          <mxGeometry width="50" height="50" relative="1" as="geometry">
            <mxPoint x="520" y="600" as="sourcePoint" />
            <mxPoint x="570" y="550" as="targetPoint" />
            <Array as="points" />
          </mxGeometry>
        </mxCell>
        <mxCell id="wlC_-Lx5bj7dAYGHCpfk-7" value="" style="endArrow=none;html=1;rounded=0;exitX=1;exitY=0.5;exitDx=0;exitDy=0;entryX=0;entryY=0.25;entryDx=0;entryDy=0;" edge="1" parent="1" source="dsAYrAbXlvFwTesoepJ8-53" target="dsAYrAbXlvFwTesoepJ8-4">
          <mxGeometry width="50" height="50" relative="1" as="geometry">
            <mxPoint x="680" y="540" as="sourcePoint" />
            <mxPoint x="740" y="460" as="targetPoint" />
          </mxGeometry>
        </mxCell>
        <mxCell id="wlC_-Lx5bj7dAYGHCpfk-20" style="edgeStyle=orthogonalEdgeStyle;rounded=0;orthogonalLoop=1;jettySize=auto;html=1;exitX=1;exitY=0.5;exitDx=0;exitDy=0;entryX=0;entryY=0;entryDx=0;entryDy=0;endArrow=none;endFill=0;" edge="1" parent="1" source="wlC_-Lx5bj7dAYGHCpfk-17" target="dsAYrAbXlvFwTesoepJ8-4">
          <mxGeometry relative="1" as="geometry" />
        </mxCell>
        <mxCell id="wlC_-Lx5bj7dAYGHCpfk-17" value="&lt;font style=&quot;font-size: 10px;&quot;&gt;Final Rate&lt;/font&gt;" style="ellipse;whiteSpace=wrap;html=1;container=0;" vertex="1" parent="1">
          <mxGeometry x="577.9985185185185" y="397.5" width="50.37037037037037" height="29.999999999999996" as="geometry" />
        </mxCell>
        <mxCell id="wlC_-Lx5bj7dAYGHCpfk-21" value="Service Time" style="ellipse;whiteSpace=wrap;html=1;container=0;" vertex="1" parent="1">
          <mxGeometry x="352.45" y="160.63" width="68.35" height="36.88" as="geometry" />
        </mxCell>
        <mxCell id="RLMzL6fTci_8UI5Vc1-A-5" value="" style="endArrow=none;html=1;rounded=0;exitX=0.69;exitY=-0.038;exitDx=0;exitDy=0;exitPerimeter=0;entryX=0.414;entryY=1.007;entryDx=0;entryDy=0;entryPerimeter=0;" edge="1" parent="1" source="ehKbYfIGueKPBCr57h6E-3" target="RLMzL6fTci_8UI5Vc1-A-6">
          <mxGeometry width="50" height="50" relative="1" as="geometry">
            <mxPoint x="490" y="110" as="sourcePoint" />
            <mxPoint x="480" y="130" as="targetPoint" />
          </mxGeometry>
        </mxCell>
        <mxCell id="RLMzL6fTci_8UI5Vc1-A-6" value="DateTime Booked" style="ellipse;whiteSpace=wrap;html=1;" vertex="1" parent="1">
          <mxGeometry x="455.61" y="116.88" width="67.97" height="43.75" as="geometry" />
        </mxCell>
        <mxCell id="FvDs03gsVKllFDn5LNJ5-57" value="" style="endArrow=none;html=1;rounded=0;exitX=0.25;exitY=0;exitDx=0;exitDy=0;entryX=1;entryY=1;entryDx=0;entryDy=0;" edge="1" parent="1" source="ehKbYfIGueKPBCr57h6E-3" target="wlC_-Lx5bj7dAYGHCpfk-21">
          <mxGeometry width="50" height="50" relative="1" as="geometry">
            <mxPoint x="620" y="370" as="sourcePoint" />
            <mxPoint x="410" y="200" as="targetPoint" />
          </mxGeometry>
        </mxCell>
        <mxCell id="dZd_Nu6e-lnLEO_Q3HRL-1" value="" style="endArrow=none;html=1;rounded=0;" edge="1" parent="1">
          <mxGeometry width="50" height="50" relative="1" as="geometry">
            <mxPoint x="777.58" y="457.5" as="sourcePoint" />
            <mxPoint x="790" y="410" as="targetPoint" />
          </mxGeometry>
        </mxCell>
        <mxCell id="dZd_Nu6e-lnLEO_Q3HRL-2" value="&lt;font style=&quot;font-size: 8px;&quot;&gt;&lt;u&gt;Service_ID&lt;/u&gt;&lt;/font&gt;" style="ellipse;whiteSpace=wrap;html=1;" vertex="1" parent="1">
          <mxGeometry x="775.03" y="368" width="48" height="45" as="geometry" />
        </mxCell>
        <mxCell id="dZd_Nu6e-lnLEO_Q3HRL-5" value="" style="endArrow=none;html=1;rounded=0;exitX=1;exitY=0.75;exitDx=0;exitDy=0;" edge="1" parent="1" source="ehKbYfIGueKPBCr57h6E-1">
          <mxGeometry width="50" height="50" relative="1" as="geometry">
            <mxPoint x="1030" y="350" as="sourcePoint" />
            <mxPoint x="990" y="340" as="targetPoint" />
          </mxGeometry>
        </mxCell>
        <mxCell id="dZd_Nu6e-lnLEO_Q3HRL-6" value="Size" style="ellipse;whiteSpace=wrap;html=1;" vertex="1" parent="1">
          <mxGeometry x="990" y="310" width="60" height="43" as="geometry" />
        </mxCell>
        <mxCell id="dZd_Nu6e-lnLEO_Q3HRL-7" value="" style="endArrow=none;html=1;rounded=0;exitX=1;exitY=0.75;exitDx=0;exitDy=0;" edge="1" parent="1" source="1ygeVyvk1VY-v8zEGY2U-5">
          <mxGeometry width="50" height="50" relative="1" as="geometry">
            <mxPoint x="1040" y="510" as="sourcePoint" />
            <mxPoint x="1030" y="490" as="targetPoint" />
          </mxGeometry>
        </mxCell>
        <mxCell id="dZd_Nu6e-lnLEO_Q3HRL-8" value="&lt;font style=&quot;font-size: 9px;&quot;&gt;ProductName&lt;/font&gt;" style="ellipse;whiteSpace=wrap;html=1;" vertex="1" parent="1">
          <mxGeometry x="1030" y="472" width="70" height="43" as="geometry" />
        </mxCell>
        <mxCell id="uRuj4pBsoYsER1AoV_i5-4" style="edgeStyle=orthogonalEdgeStyle;rounded=0;orthogonalLoop=1;jettySize=auto;html=1;exitX=0;exitY=1;exitDx=0;exitDy=0;entryX=1;entryY=0;entryDx=0;entryDy=0;endArrow=none;endFill=0;" edge="1" parent="1" source="uRuj4pBsoYsER1AoV_i5-1" target="dsAYrAbXlvFwTesoepJ8-3">
          <mxGeometry relative="1" as="geometry" />
        </mxCell>
        <mxCell id="uRuj4pBsoYsER1AoV_i5-1" value="Postal Code" style="ellipse;whiteSpace=wrap;html=1;" vertex="1" parent="1">
          <mxGeometry x="921.0699999999999" y="93.75" width="70.32" height="32.75" as="geometry" />
        </mxCell>
        <mxCell id="uRuj4pBsoYsER1AoV_i5-2" value="Province" style="ellipse;whiteSpace=wrap;html=1;" vertex="1" parent="1">
          <mxGeometry x="969" y="125.13" width="70.32" height="32.75" as="geometry" />
        </mxCell>
        <mxCell id="uRuj4pBsoYsER1AoV_i5-6" value="DogOnly" style="ellipse;whiteSpace=wrap;html=1;" vertex="1" parent="1">
          <mxGeometry x="689.67" y="280" width="63.19" height="32" as="geometry" />
        </mxCell>
        <mxCell id="uRuj4pBsoYsER1AoV_i5-7" value="CatOnly" style="ellipse;whiteSpace=wrap;html=1;" vertex="1" parent="1">
          <mxGeometry x="759.8399999999999" y="283" width="63.19" height="32" as="geometry" />
        </mxCell>
        <mxCell id="uRuj4pBsoYsER1AoV_i5-10" value="" style="endArrow=none;html=1;rounded=0;entryX=0.362;entryY=0.983;entryDx=0;entryDy=0;entryPerimeter=0;exitX=0.5;exitY=0;exitDx=0;exitDy=0;" edge="1" parent="1" source="uRuj4pBsoYsER1AoV_i5-6" target="dsAYrAbXlvFwTesoepJ8-2">
          <mxGeometry width="50" height="50" relative="1" as="geometry">
            <mxPoint x="547" y="408" as="sourcePoint" />
            <mxPoint x="597" y="358" as="targetPoint" />
          </mxGeometry>
        </mxCell>
        <mxCell id="uRuj4pBsoYsER1AoV_i5-12" value="DogAndCat" style="ellipse;whiteSpace=wrap;html=1;" vertex="1" parent="1">
          <mxGeometry x="812" y="256" width="78" height="32" as="geometry" />
        </mxCell>
        <mxCell id="uRuj4pBsoYsER1AoV_i5-13" value="" style="endArrow=none;html=1;rounded=0;entryX=0.75;entryY=1;entryDx=0;entryDy=0;exitX=0;exitY=0;exitDx=0;exitDy=0;" edge="1" parent="1" source="uRuj4pBsoYsER1AoV_i5-12" target="dsAYrAbXlvFwTesoepJ8-2">
          <mxGeometry width="50" height="50" relative="1" as="geometry">
            <mxPoint x="547" y="408" as="sourcePoint" />
            <mxPoint x="597" y="358" as="targetPoint" />
          </mxGeometry>
        </mxCell>
        <mxCell id="uRuj4pBsoYsER1AoV_i5-14" value="" style="endArrow=none;html=1;rounded=0;entryX=0.5;entryY=1;entryDx=0;entryDy=0;" edge="1" parent="1" target="dsAYrAbXlvFwTesoepJ8-2">
          <mxGeometry width="50" height="50" relative="1" as="geometry">
            <mxPoint x="782" y="282" as="sourcePoint" />
            <mxPoint x="597" y="358" as="targetPoint" />
          </mxGeometry>
        </mxCell>
      </root>
    </mxGraphModel>
  </diagram>
</mxfile>
